<svg width="120" height="62" viewBox="0 0 120 62" fill="none" xmlns="http://www.w3.org/2000/svg">
<g clip-path="url(#clip0_281_13236)">
<path d="M40.595 8.56198L29.0183 6.50099C28.2224 6.3593 27.6871 5.59218 27.8288 4.79628C27.9705 4.00037 28.7376 3.46511 29.5335 3.60681L41.1103 5.6678C41.9062 5.80949 42.4414 6.57661 42.2997 7.37251C42.1581 8.16842 41.3909 8.70368 40.595 8.56198Z" fill="#008080"/>
<path d="M27.8291 4.79626L30.7233 5.31151L30.208 8.2057L27.3139 7.69045L27.8291 4.79626ZM39.4059 6.85725L42.3 7.3725L41.7848 10.2667L38.8906 9.75144L39.4059 6.85725Z" fill="#008080"/>
<path d="M27.314 7.69043L30.2082 8.20568L28.6624 16.8882L25.7682 16.373L27.314 7.69043ZM38.8907 9.75142L41.7849 10.2667L40.2392 18.9492L37.345 18.434L38.8907 9.75142Z" fill="#008080"/>
<path d="M12.9633 37.9807C12.1674 37.839 11.6321 37.0719 11.7738 36.276L13.3195 27.5935C13.4612 26.7976 14.2283 26.2623 15.0242 26.404C15.8201 26.5457 16.3554 27.3128 16.2137 28.1087L14.668 36.7913C14.5263 37.5872 13.7592 38.1224 12.9633 37.9807ZM14.9344 52.0669L13.4873 51.8093C12.6914 51.6676 12.1561 50.9004 12.2978 50.1045L12.5555 48.6574C12.6971 47.8615 13.4643 47.3263 14.2602 47.468L15.7073 47.7256C16.5032 47.8673 17.0384 48.6344 16.8967 49.4303L16.6391 50.8774C16.4974 51.6733 15.7303 52.2086 14.9344 52.0669ZM39.535 56.4465L38.0879 56.1889C37.292 56.0472 36.7567 55.28 36.8984 54.4841L37.1561 53.037C37.2978 52.2411 38.0649 51.7059 38.8608 51.8476L40.3079 52.1052C41.1038 52.2469 41.639 53.014 41.4973 53.8099L41.2397 55.257C41.098 56.0529 40.3309 56.5882 39.535 56.4465Z" fill="#008080"/>
<path d="M39.8446 54.71L13.7969 50.0727C12.2051 49.7893 11.1345 48.2551 11.4179 46.6633L16.828 16.2743C17.1114 14.6825 18.6456 13.612 20.2375 13.8954L46.2851 18.5326C47.877 18.816 48.9475 20.3502 48.6641 21.942L43.254 52.331C42.9706 53.9228 41.4364 54.9933 39.8446 54.71Z" fill="#008080"/>
<path d="M42.2618 32.7459L19.1083 28.6239C18.3124 28.4822 17.7771 27.7151 17.9188 26.9192L19.4645 18.2366C19.6062 17.4407 20.3734 16.9055 21.1693 17.0472L44.3228 21.1692C45.1187 21.3108 45.6539 22.078 45.5122 22.8739L43.9665 31.5564C43.8248 32.3523 43.0577 32.8876 42.2618 32.7459ZM38.9127 51.5581L15.7592 47.4362C14.9633 47.2945 14.428 46.5273 14.5697 45.7314L17.1459 31.2605C17.2876 30.4646 18.0547 29.9293 18.8506 30.071L42.0042 34.193C42.8001 34.3347 43.3353 35.1018 43.1936 35.8977L40.6174 50.3687C40.4757 51.1646 39.7086 51.6998 38.9127 51.5581Z" fill="#008080"/>
<path d="M13.0241 54.414C13.8233 54.5562 14.5866 54.0237 14.7289 53.2245C14.8711 52.4253 14.3386 51.6621 13.5394 51.5198C12.7402 51.3775 11.9769 51.91 11.8347 52.7092C11.6924 53.5084 12.2249 54.2717 13.0241 54.414Z" fill="#008080"/>
<path d="M39.0715 59.0512C39.8707 59.1934 40.6339 58.6609 40.7762 57.8617C40.9185 57.0625 40.386 56.2993 39.5867 56.157C38.7875 56.0147 38.0243 56.5472 37.882 57.3464C37.7397 58.1457 38.2723 58.9089 39.0715 59.0512Z" fill="#008080"/>
<path d="M43.084 23.9346L21.3775 20.0702C20.9796 19.9994 20.712 19.6158 20.7828 19.2179C20.8537 18.8199 21.2372 18.5523 21.6352 18.6231L43.3416 22.4875C43.7395 22.5583 44.0072 22.9419 43.9363 23.3399C43.8655 23.7378 43.4819 24.0054 43.084 23.9346ZM40.7653 36.9584L19.0589 33.0941C18.661 33.0232 18.3933 32.6397 18.4642 32.2417C18.535 31.8438 18.9186 31.5761 19.3166 31.647L41.023 35.5113C41.4209 35.5822 41.6886 35.9657 41.6177 36.3637C41.5469 36.7617 41.1633 37.0293 40.7653 36.9584Z" fill="#008080"/>
<path d="M22.8246 20.3279L21.3775 20.0702C20.9796 19.9994 20.712 19.6158 20.7828 19.2179C20.8537 18.8199 21.2372 18.5523 21.6352 18.6231L23.0823 18.8808C23.4802 18.9516 23.7478 19.3352 23.677 19.7331C23.6062 20.1311 23.2226 20.3987 22.8246 20.3279ZM20.506 33.3517L19.0589 33.0941C18.661 33.0232 18.3933 32.6397 18.4642 32.2417C18.535 31.8438 18.9186 31.5761 19.3166 31.647L20.7636 31.9046C21.1616 31.9755 21.4292 32.359 21.3584 32.757C21.2875 33.1549 20.904 33.4225 20.506 33.3517Z" fill="#008080"/>
<path d="M30.3124 48.6345L24.3285 47.471L28.3578 26.7469L21.6545 25.4436L22.6132 20.5127L42.0037 24.2827L41.045 29.2137L34.3417 27.9104L30.3124 48.6345Z" fill="#FFB400"/>
</g>
<path d="M62.0137 30.2762C62.3236 30.2762 62.6692 30.2941 63.0505 30.3299C63.4319 30.3656 63.7299 30.4073 63.9444 30.455L63.4617 36.104C63.271 36.0444 63.0029 35.9967 62.6573 35.961C62.3236 35.9252 61.966 35.9073 61.5847 35.9073C60.9649 35.9073 60.3512 35.9789 59.7434 36.1219C59.1475 36.2649 58.5993 36.5152 58.0987 36.8727C57.6101 37.2302 57.2168 37.7129 56.9189 38.3207C56.621 38.9285 56.472 39.6972 56.472 40.6268V50.727H50.4655V30.6517H54.9882L55.8821 33.9588H56.186C56.5673 33.2795 57.05 32.6657 57.634 32.1175C58.2179 31.5574 58.8794 31.1105 59.6183 30.7768C60.3691 30.4431 61.1675 30.2762 62.0137 30.2762ZM74.0618 30.6517V50.727H68.0553V30.6517H74.0618ZM71.0764 22.6966C71.9464 22.6966 72.7032 22.8932 73.3467 23.2865C73.9903 23.6798 74.312 24.4247 74.312 25.5211C74.312 26.6056 73.9903 27.3505 73.3467 27.7557C72.7032 28.1489 71.9464 28.3456 71.0764 28.3456C70.1706 28.3456 69.402 28.1489 68.7703 27.7557C68.1506 27.3505 67.8407 26.6056 67.8407 25.5211C67.8407 24.4247 68.1506 23.6798 68.7703 23.2865C69.402 22.8932 70.1706 22.6966 71.0764 22.6966ZM91.7767 30.2762C94.0291 30.2762 95.8287 31.1582 97.1754 32.922C98.5221 34.6858 99.1954 37.26 99.1954 40.6446C99.1954 42.9209 98.8677 44.8397 98.2122 46.4009C97.5687 47.9502 96.6749 49.1181 95.5308 49.9047C94.3867 50.6912 93.0817 51.0845 91.6158 51.0845C90.6505 51.0845 89.8281 50.9653 89.1488 50.727C88.4695 50.4767 87.8915 50.1669 87.4148 49.7974C86.95 49.416 86.5508 49.0168 86.2171 48.5997H85.9489C86.0324 49.0764 86.0979 49.571 86.1456 50.0834C86.1933 50.5959 86.2171 51.1322 86.2171 51.6923V59.5222H80.2106V30.6517H85.0909L85.9489 33.2259H86.2171C86.5627 32.7015 86.9858 32.2129 87.4863 31.76C87.9869 31.3071 88.5887 30.9496 89.2919 30.6874C90.0069 30.4133 90.8352 30.2762 91.7767 30.2762ZM89.7209 35.0493C88.8628 35.0493 88.1835 35.234 87.683 35.6034C87.1824 35.961 86.8189 36.5092 86.5925 37.2481C86.3661 37.987 86.2409 38.9166 86.2171 40.0368V40.6089C86.2171 41.8245 86.3244 42.8494 86.5389 43.6836C86.7534 44.5179 87.1169 45.1555 87.6293 45.5964C88.1537 46.0255 88.8688 46.24 89.7745 46.24C90.5134 46.24 91.1272 46.0314 91.6158 45.6143C92.1044 45.1853 92.4679 44.5536 92.7063 43.7194C92.9565 42.8852 93.0817 41.8364 93.0817 40.5731C93.0817 38.6901 92.8016 37.3017 92.2415 36.4079C91.6933 35.5021 90.8531 35.0493 89.7209 35.0493ZM118.644 50.727H102.502V47.2411L111.44 35.228H103.02V30.6517H118.287V34.4594L109.635 46.1327H118.644V50.727Z" fill="#008080"/>
<defs>
<clipPath id="clip0_281_13236">
<rect width="52.9145" height="52.9145" fill="white" transform="translate(9.27441) rotate(10.0945)"/>
</clipPath>
</defs>
</svg>
