<svg width="92" height="47" viewBox="0 0 92 47" fill="none" xmlns="http://www.w3.org/2000/svg">
<g clip-path="url(#clip0_232_12728)">
<path d="M30.91 6.51917L22.0953 4.94989C21.4893 4.84201 21.0817 4.2579 21.1896 3.65189C21.2975 3.04588 21.8816 2.63832 22.4876 2.74621L31.3023 4.31548C31.9083 4.42337 32.3159 5.00747 32.208 5.61348C32.1001 6.2195 31.516 6.62705 30.91 6.51917Z" fill="#FFB400"/>
<path d="M21.1897 3.65186L23.3934 4.04417L23.0011 6.24786L20.7974 5.85554L21.1897 3.65186ZM30.0044 5.22113L32.2081 5.61345L31.8158 7.81713L29.6121 7.42481L30.0044 5.22113Z" fill="#FFB400"/>
<path d="M20.7974 5.85571L23.001 6.24803L21.8241 12.8591L19.6204 12.4668L20.7974 5.85571ZM29.6121 7.42499L31.8158 7.8173L30.6388 14.4284L28.4351 14.036L29.6121 7.42499Z" fill="#FFB400"/>
<path d="M9.8707 28.9191C9.26469 28.8112 8.85713 28.2271 8.96502 27.6211L10.142 21.01C10.2499 20.404 10.834 19.9965 11.44 20.1044C12.046 20.2122 12.4535 20.7964 12.3457 21.4024L11.1687 28.0134C11.0608 28.6194 10.4767 29.027 9.8707 28.9191ZM11.3716 39.6445L10.2697 39.4484C9.66371 39.3405 9.25615 38.7564 9.36404 38.1504L9.5602 37.0485C9.66809 36.4425 10.2522 36.035 10.8582 36.1428L11.96 36.339C12.5661 36.4469 12.9736 37.031 12.8657 37.637L12.6696 38.7388C12.5617 39.3449 11.9776 39.7524 11.3716 39.6445ZM30.1029 42.9792L29.001 42.7831C28.395 42.6752 27.9875 42.0911 28.0954 41.4851L28.2915 40.3832C28.3994 39.7772 28.9835 39.3697 29.5895 39.4775L30.6914 39.6737C31.2974 39.7816 31.7049 40.3657 31.5971 40.9717L31.4009 42.0736C31.293 42.6796 30.7089 43.0871 30.1029 42.9792Z" fill="#FFB400"/>
<path d="M30.3384 41.657L10.5053 38.1261C9.29325 37.9103 8.47813 36.7421 8.69391 35.5301L12.8132 12.3914C13.029 11.1794 14.1972 10.3643 15.4093 10.5801L35.2424 14.1109C36.4544 14.3267 37.2696 15.4949 37.0538 16.7069L32.9344 39.8456C32.7187 41.0576 31.5505 41.8728 30.3384 41.657Z" fill="#FFB400"/>
<path d="M32.1789 24.9334L14.5494 21.7948C13.9434 21.6869 13.5358 21.1028 13.6437 20.4968L14.8207 13.8858C14.9286 13.2798 15.5127 12.8722 16.1187 12.9801L33.7482 16.1186C34.3542 16.2265 34.7617 16.8106 34.6539 17.4166L33.4769 24.0277C33.369 24.6337 32.7849 25.0413 32.1789 24.9334ZM29.6288 39.2573L11.9993 36.1188C11.3933 36.0109 10.9858 35.4268 11.0937 34.8208L13.0553 23.8024C13.1631 23.1963 13.7472 22.7888 14.3533 22.8967L31.9827 26.0352C32.5887 26.1431 32.9963 26.7272 32.8884 27.3332L30.9268 38.3516C30.8189 38.9577 30.2348 39.3652 29.6288 39.2573Z" fill="#FFB400"/>
<path d="M9.91656 41.4318C10.5251 41.5402 11.1062 41.1347 11.2146 40.5261C11.3229 39.9176 10.9174 39.3365 10.3089 39.2281C9.70034 39.1198 9.11921 39.5253 9.01087 40.1338C8.90254 40.7424 9.30802 41.3235 9.91656 41.4318Z" fill="#FFB400"/>
<path d="M29.7498 44.9626C30.3583 45.0709 30.9395 44.6654 31.0478 44.0569C31.1561 43.4484 30.7507 42.8672 30.1421 42.7589C29.5336 42.6506 28.9525 43.0561 28.8441 43.6646C28.7358 44.2731 29.1413 44.8543 29.7498 44.9626Z" fill="#FFB400"/>
<path d="M32.8048 18.2241L16.2771 15.2817C15.9741 15.2278 15.7703 14.9357 15.8243 14.6327C15.8782 14.3297 16.1703 14.1259 16.4733 14.1799L33.0009 17.1223C33.3039 17.1762 33.5077 17.4682 33.4538 17.7713C33.3998 18.0743 33.1078 18.278 32.8048 18.2241ZM31.0393 28.1407L14.5117 25.1983C14.2087 25.1443 14.0049 24.8523 14.0589 24.5493C14.1128 24.2463 14.4048 24.0425 14.7079 24.0964L31.2355 27.0388C31.5385 27.0928 31.7423 27.3848 31.6883 27.6878C31.6344 27.9908 31.3423 28.1946 31.0393 28.1407Z" fill="#FFB400"/>
<path d="M17.379 15.4779L16.2771 15.2817C15.9741 15.2278 15.7703 14.9357 15.8243 14.6327C15.8782 14.3297 16.1703 14.1259 16.4733 14.1799L17.5751 14.376C17.8781 14.43 18.0819 14.722 18.028 15.025C17.974 15.328 17.682 15.5318 17.379 15.4779ZM15.6135 25.3945L14.5117 25.1983C14.2087 25.1443 14.0049 24.8523 14.0589 24.5493C14.1128 24.2463 14.4048 24.0425 14.7079 24.0964L15.8097 24.2926C16.1127 24.3466 16.3165 24.6386 16.2625 24.9416C16.2086 25.2446 15.9165 25.4484 15.6135 25.3945Z" fill="#FFB400"/>
<path d="M23.022 37.3301L18.4658 36.4443L21.5338 20.6646L16.4297 19.6722L17.1597 15.9177L31.924 18.7883L31.194 22.5428L26.09 21.5504L23.022 37.3301Z" fill="#008080"/>
</g>
<path d="M47.218 23.3577C47.4539 23.3577 47.7171 23.3713 48.0075 23.3985C48.2978 23.4257 48.5247 23.4575 48.688 23.4938L48.3205 27.795C48.1753 27.7496 47.9712 27.7133 47.708 27.6861C47.4539 27.6589 47.1817 27.6453 46.8913 27.6453C46.4194 27.6453 45.9521 27.6997 45.4893 27.8086C45.0356 27.9175 44.6182 28.1081 44.2371 28.3803C43.865 28.6525 43.5656 29.02 43.3387 29.4828C43.1119 29.9456 42.9984 30.5309 42.9984 31.2387V38.9292H38.425V23.6435H41.8687L42.5492 26.1616H42.7806C43.071 25.6444 43.4385 25.1771 43.8832 24.7596C44.3278 24.3331 44.8314 23.9929 45.394 23.7388C45.9657 23.4847 46.5737 23.3577 47.218 23.3577ZM56.3916 23.6435V38.9292H51.8181V23.6435H56.3916ZM54.1185 17.5864C54.7809 17.5864 55.3571 17.7361 55.8471 18.0356C56.3371 18.335 56.5822 18.9022 56.5822 19.737C56.5822 20.5628 56.3371 21.1299 55.8471 21.4384C55.3571 21.7379 54.7809 21.8876 54.1185 21.8876C53.4288 21.8876 52.8435 21.7379 52.3626 21.4384C51.8907 21.1299 51.6548 20.5628 51.6548 19.737C51.6548 18.9022 51.8907 18.335 52.3626 18.0356C52.8435 17.7361 53.4288 17.5864 54.1185 17.5864ZM69.88 23.3577C71.5951 23.3577 72.9653 24.0292 73.9907 25.3722C75.0161 26.7152 75.5288 28.6752 75.5288 31.2523C75.5288 32.9855 75.2793 34.4465 74.7802 35.6352C74.2902 36.8149 73.6096 37.7042 72.7385 38.3031C71.8673 38.902 70.8737 39.2014 69.7575 39.2014C69.0225 39.2014 68.3964 39.1107 67.8791 38.9292C67.3619 38.7386 66.9218 38.5027 66.5588 38.2214C66.2049 37.931 65.9009 37.627 65.6469 37.3094H65.4427C65.5062 37.6724 65.5561 38.049 65.5924 38.4392C65.6287 38.8294 65.6469 39.2377 65.6469 39.6642V45.6261H61.0734V23.6435H64.7893L65.4427 25.6035H65.6469C65.91 25.2043 66.2322 24.8322 66.6133 24.4874C66.9944 24.1426 67.4527 23.8704 67.988 23.6707C68.5325 23.462 69.1632 23.3577 69.88 23.3577ZM68.3147 26.9919C67.6614 26.9919 67.1441 27.1326 66.763 27.4139C66.3819 27.6861 66.1051 28.1035 65.9327 28.6661C65.7603 29.2287 65.665 29.9365 65.6469 30.7895V31.2251C65.6469 32.1507 65.7285 32.9311 65.8919 33.5663C66.0552 34.2015 66.332 34.687 66.7222 35.0227C67.1214 35.3494 67.6659 35.5127 68.3556 35.5127C68.9182 35.5127 69.3855 35.3539 69.7575 35.0363C70.1296 34.7096 70.4063 34.2287 70.5878 33.5935C70.7784 32.9583 70.8737 32.1597 70.8737 31.1979C70.8737 29.7641 70.6604 28.707 70.2339 28.0264C69.8165 27.3367 69.1768 26.9919 68.3147 26.9919ZM90.3376 38.9292H78.0464V36.275L84.8521 27.128H78.4411V23.6435H90.0653V26.5427L83.4774 35.431H90.3376V38.9292Z" fill="#FFB400"/>
<defs>
<clipPath id="clip0_232_12728">
<rect width="40.29" height="40.29" fill="white" transform="translate(7.06177) rotate(10.0945)"/>
</clipPath>
</defs>
</svg>
